<svg xmlns="http://www.w3.org/2000/svg" width="300" height="137.165" viewBox="0 0 300 137.165">
  <g id="Grupo_259" data-name="Grupo 259" transform="translate(-80.611 -38.48)">
    <g id="Grupo_251" data-name="Grupo 251" transform="translate(80.611 125.25)">
      <path id="Caminho_345" data-name="Caminho 345" d="M272.9,125.649a28.5,28.5,0,0,1,6.828.762,15.257,15.257,0,0,1,5.268,2.323,10.475,10.475,0,0,1,3.362,3.951,12.651,12.651,0,0,1,1.179,5.649v15.527a4.3,4.3,0,0,1-1,2.947,10.057,10.057,0,0,1-2.391,1.976q-4.509,2.7-12.686,2.7a28.965,28.965,0,0,1-6.62-.695,15.634,15.634,0,0,1-5.06-2.079,9.512,9.512,0,0,1-3.257-3.535,10.452,10.452,0,0,1-1.145-4.991q0-4.782,2.842-7.347t8.8-3.189l8.33-1.336a.8.8,0,0,0,.667-.941,2.918,2.918,0,0,0-1.684-2.056,11.905,11.905,0,0,0-5.1-.866,23.736,23.736,0,0,0-5.094.554,29.91,29.91,0,0,0-3,.814,2.531,2.531,0,0,1-3.058-1.308l-.012-.027a6.021,6.021,0,0,1-.624-2.668,4.444,4.444,0,0,1,.866-2.877,6.7,6.7,0,0,1,2.669-1.837A20.926,20.926,0,0,1,267.732,126,41.42,41.42,0,0,1,272.9,125.649Zm.555,27.242a15.454,15.454,0,0,0,2.6-.243l.362-.064a2.113,2.113,0,0,0,1.751-2.082v-3.553a.465.465,0,0,0-.5-.463l-4.488.374a7.709,7.709,0,0,0-3.188.832,2.241,2.241,0,0,0-1.247,2.08,2.758,2.758,0,0,0,1.074,2.253A5.882,5.882,0,0,0,273.451,152.891Z" transform="translate(-52.079 -111.179)" fill="#ffa200"/>
      <path id="Caminho_346" data-name="Caminho 346" d="M114.847,130.667a15.548,15.548,0,0,1-.484,3.221c-.325,1.415-.763,3.006-1.312,4.784s-1.182,3.667-1.88,5.649-1.405,3.919-2.14,5.79-1.48,3.629-2.224,5.268c-.531,1.19-1.024,2.215-1.461,3.071a3.391,3.391,0,0,1-1.62,1.583,10.07,10.07,0,0,1-1.7.576,16.7,16.7,0,0,1-4.226.494,14.083,14.083,0,0,1-4.682-.7,4.6,4.6,0,0,1-2.736-2.215c-.418-.791-.912-1.871-1.489-3.258s-1.192-2.959-1.834-4.719-1.321-3.6-2.009-5.547-1.36-3.881-1.983-5.818-1.192-3.816-1.695-5.612q-.348-1.242-.642-2.346a3.559,3.559,0,0,1,1.992-4.142,8.7,8.7,0,0,1,3.574-.726,7.245,7.245,0,0,1,3.984,1.006,6.189,6.189,0,0,1,2.318,3.778l2.708,10.6q.279,1.172.559,2.261s.019.093.065.252c.2.679.819,2.484,1.973,2.484,1.079,0,1.693-1.61,1.926-2.382l.037-.139c.048-.159.066-.252.066-.252l.986-4.021q1.228-5.263,2.261-10.377a3.577,3.577,0,0,1,2.578-2.746c.149-.046.308-.084.466-.121a12.576,12.576,0,0,1,2.876-.345,7.506,7.506,0,0,1,4.086,1.043A3.882,3.882,0,0,1,114.847,130.667Z" transform="translate(-80.611 -111.119)" fill="#787777"/>
      <path id="Caminho_347" data-name="Caminho 347" d="M123.885,148a1.169,1.169,0,0,0-.794,1.819,5.826,5.826,0,0,0,2.415,1.933,12.639,12.639,0,0,0,5.13,1,20.762,20.762,0,0,0,5.545-.727,21.807,21.807,0,0,0,2.614-.886,2.79,2.79,0,0,1,3.47,1.1l.015.024a4.968,4.968,0,0,1,.763,2.634,4.714,4.714,0,0,1-.97,2.98,7.34,7.34,0,0,1-2.739,2.08,15.581,15.581,0,0,1-4.194,1.214,34.77,34.77,0,0,1-5.338.381,24.284,24.284,0,0,1-7.59-1.144,16.838,16.838,0,0,1-6.065-3.431,15.731,15.731,0,0,1-4.021-5.754,20.819,20.819,0,0,1-1.456-8.11,18.955,18.955,0,0,1,1.491-7.867,15.34,15.34,0,0,1,3.951-5.408,16.036,16.036,0,0,1,5.579-3.12,20.706,20.706,0,0,1,6.377-1,19.275,19.275,0,0,1,6.69,1.109,16.071,16.071,0,0,1,5.2,3.05,13.186,13.186,0,0,1,3.362,4.645,14.594,14.594,0,0,1,1.178,5.892,4.727,4.727,0,0,1-1.317,3.6,6.582,6.582,0,0,1-3.674,1.595Zm4.254-13.683a6.327,6.327,0,0,0-4.4,1.593,6.166,6.166,0,0,0-1.685,2.595h0a1.231,1.231,0,0,0,1.362,1.617l.049-.008,8.644-1.424a1.167,1.167,0,0,0,.891-1.62l-.007-.014a4.9,4.9,0,0,0-.971-1.353,4.6,4.6,0,0,0-1.593-1A6.274,6.274,0,0,0,128.139,134.32Z" transform="translate(-75.759 -111.167)" fill="#787777"/>
      <path id="Caminho_348" data-name="Caminho 348" d="M175.42,159.515a1.065,1.065,0,0,1-.856,1.048c-.406.081-.9.173-1.327.236a21.253,21.253,0,0,1-3.085.208q-3.467,0-4.991-1.143t-1.525-4.4V139.1a3.764,3.764,0,0,0-1.282-3.154,5.306,5.306,0,0,0-3.362-1.006,9.461,9.461,0,0,0-2.6.347l-.024.007a3.255,3.255,0,0,0-2.3,3.147v19.845a2.527,2.527,0,0,1-2.154,2.506l-.029,0a21.254,21.254,0,0,1-3.085.208q-3.467,0-4.991-1.143t-1.525-4.4V134.6a5.325,5.325,0,0,1,.8-3.049,8.4,8.4,0,0,1,2.182-2.15,19.32,19.32,0,0,1,5.927-2.669,29.3,29.3,0,0,1,7.937-1q7.833,0,12.061,3.431t4.229,9.6Z" transform="translate(-70.656 -111.167)" fill="#787777"/>
      <path id="Caminho_349" data-name="Caminho 349" d="M191.239,127.266a15.406,15.406,0,0,1,5.13.762h0V118.9a2.533,2.533,0,0,1,2.156-2.512l.028,0a21.237,21.237,0,0,1,3.085-.209q3.465,0,4.991,1.144t1.525,4.4v32.857a5.915,5.915,0,0,1-3.05,5.2,21.194,21.194,0,0,1-5.164,2.322,24.121,24.121,0,0,1-7.313,1.006q-9.082,0-14.141-4.471t-5.06-13.344a21,21,0,0,1,1.387-7.972,15.048,15.048,0,0,1,9.427-8.942A21.606,21.606,0,0,1,191.239,127.266Zm5.2,11.569a2.181,2.181,0,0,0-1.646-2.138l-.019,0a8.317,8.317,0,0,0-1.871-.209,7.137,7.137,0,0,0-5.581,2.185q-1.976,2.183-1.976,6.62,0,4.366,1.872,6.447a6.809,6.809,0,0,0,5.337,2.079,8.873,8.873,0,0,0,2.288-.278h0a2.151,2.151,0,0,0,1.595-2.078Z" transform="translate(-65.629 -112.708)" fill="#787777"/>
      <path id="Caminho_350" data-name="Caminho 350" d="M221.343,125.724a28.5,28.5,0,0,1,6.828.762,15.266,15.266,0,0,1,5.268,2.323,10.474,10.474,0,0,1,3.362,3.951,12.651,12.651,0,0,1,1.179,5.649v15.527a4.3,4.3,0,0,1-1.006,2.947,10.033,10.033,0,0,1-2.391,1.976q-4.507,2.7-12.685,2.7a29.026,29.026,0,0,1-6.62-.693,15.659,15.659,0,0,1-5.06-2.08,9.524,9.524,0,0,1-3.258-3.535,10.466,10.466,0,0,1-1.144-4.991q0-4.782,2.842-7.347t8.8-3.189l8.33-1.336a.8.8,0,0,0,.667-.941,2.92,2.92,0,0,0-1.684-2.056,11.906,11.906,0,0,0-5.1-.866,23.727,23.727,0,0,0-5.094.554,29.93,29.93,0,0,0-3,.814,2.529,2.529,0,0,1-3.057-1.308l-.012-.026a6.03,6.03,0,0,1-.624-2.669,4.451,4.451,0,0,1,.865-2.877,6.728,6.728,0,0,1,2.67-1.837,20.867,20.867,0,0,1,4.748-1.108A41.206,41.206,0,0,1,221.343,125.724Zm.555,27.242a15.465,15.465,0,0,0,2.6-.243l.361-.063a2.115,2.115,0,0,0,1.753-2.084v-3.553a.464.464,0,0,0-.5-.462l-4.488.373a7.7,7.7,0,0,0-3.188.832,2.241,2.241,0,0,0-1.247,2.08,2.754,2.754,0,0,0,1.074,2.253A5.874,5.874,0,0,0,221.9,152.966Z" transform="translate(-60.401 -111.167)" fill="#787777"/>
      <path id="Caminho_351" data-name="Caminho 351" d="M256.965,131.112a2.447,2.447,0,0,1,2.29,1.563c.045.12.087.236.123.344a7.99,7.99,0,0,1,.382,2.53,4.814,4.814,0,0,1-1.074,3.5,3.891,3.891,0,0,1-2.878,1.074h-7.061a.91.91,0,0,0-.909.909v18.981a2.52,2.52,0,0,1-2.154,2.495l-.029,0a21.254,21.254,0,0,1-3.085.208q-3.467,0-4.991-1.143t-1.525-4.4v-28.7a13.926,13.926,0,0,1,1.213-6.065,11.531,11.531,0,0,1,3.293-4.16,13.65,13.65,0,0,1,4.887-2.391,22.823,22.823,0,0,1,6-.762q5.129,0,7.555,1.352a4.839,4.839,0,0,1,2.426,4.61,5.247,5.247,0,0,1-.589,2.5h0a2.593,2.593,0,0,1-2.83,1.3q-.585-.122-1.19-.225a19.8,19.8,0,0,0-3.293-.243,9,9,0,0,0-4.645,1.006,3.753,3.753,0,0,0-1.663,3.5v1.178a1.04,1.04,0,0,0,1.041,1.041Z" transform="translate(-55.52 -112.882)" fill="#ffa200"/>
      <path id="Caminho_352" data-name="Caminho 352" d="M274.682,116.247a1.7,1.7,0,0,1,1.4-.54,4.507,4.507,0,0,1,2.547.923,2.817,2.817,0,0,1,1.136,2.183,3.036,3.036,0,0,1-.438,1.682,7.416,7.416,0,0,1-1.484,1.552l-3.643,2.991a1.7,1.7,0,0,1-1.243.381,3.617,3.617,0,0,1-2.192-.882,2.706,2.706,0,0,1-.96-1.966,2.624,2.624,0,0,1,.2-1,4.033,4.033,0,0,1,.808-1.136Z" transform="translate(-50.072 -112.785)" fill="#ffa200"/>
      <path id="Caminho_353" data-name="Caminho 353" d="M308.061,135.013a9.766,9.766,0,0,0-3.293.554,7.428,7.428,0,0,0-2.7,1.663,8.277,8.277,0,0,0-1.836,2.739,9.564,9.564,0,0,0-.693,3.778q0,4.3,2.426,6.376a8.932,8.932,0,0,0,6.03,2.08,11.838,11.838,0,0,0,3.675-.52c.29-.094.571-.19.842-.287a3.248,3.248,0,0,1,3.893,1.271l.013.022a5.21,5.21,0,0,1,.659,2.7,5.018,5.018,0,0,1-2.739,4.437q-2.739,1.665-7.8,1.664a25.237,25.237,0,0,1-7.867-1.144,16.081,16.081,0,0,1-5.962-3.4,14.861,14.861,0,0,1-3.778-5.545,20.531,20.531,0,0,1-1.317-7.66,19.7,19.7,0,0,1,1.49-7.972,15.591,15.591,0,0,1,4.056-5.615,17.18,17.18,0,0,1,5.927-3.326,22.551,22.551,0,0,1,7.106-1.109q4.991,0,7.693,1.8a5.477,5.477,0,0,1,2.679,4.113,5.755,5.755,0,0,1-1,3.67l-.019.029a1.91,1.91,0,0,1-2.264.75q-.739-.282-1.61-.555A12.01,12.01,0,0,0,308.061,135.013Z" transform="translate(-47.197 -111.167)" fill="#ffa200"/>
      <path id="Caminho_354" data-name="Caminho 354" d="M314.607,119.429a6.094,6.094,0,0,1,1.766-4.437,6.975,6.975,0,0,1,9.359,0,6.451,6.451,0,0,1,0,8.873,6.979,6.979,0,0,1-9.359,0A6.094,6.094,0,0,1,314.607,119.429Zm.554,10.453a.816.816,0,0,1,.7-.808l1.484-.217a21.268,21.268,0,0,1,3.085-.208q3.467,0,4.992,1.143t1.525,4.4v27.8a.51.51,0,0,1-.4.5c-.444.093-1.172.24-1.78.329a21.226,21.226,0,0,1-3.084.208q-3.467,0-4.991-1.143t-1.526-4.4Z" transform="translate(-42.84 -113.19)" fill="#ffa200"/>
      <path id="Caminho_355" data-name="Caminho 355" d="M335.286,162.548q-3.467,0-4.991-1.143T328.77,157V117.918a1.407,1.407,0,0,1,1.2-1.393l.979-.143a21.266,21.266,0,0,1,3.086-.209q3.465,0,4.991,1.144t1.525,4.4V160.9a1.258,1.258,0,0,1-1.013,1.237c-.373.072-.794.15-1.171.2A21.254,21.254,0,0,1,335.286,162.548Z" transform="translate(-40.554 -112.708)" fill="#ffa200"/>
    </g>
    <g id="Grupo_258" data-name="Grupo 258" transform="translate(186.606 38.48)">
      <g id="Grupo_254" data-name="Grupo 254" transform="translate(59.77 31.911)">
        <g id="Grupo_253" data-name="Grupo 253">
          <g id="Grupo_252" data-name="Grupo 252">
            <path id="Caminho_356" data-name="Caminho 356" d="M240.035,74.314a8.348,8.348,0,1,1-8.358-8.358A8.367,8.367,0,0,1,240.035,74.314Z" transform="translate(-223.338 -65.956)" fill="#ffa200"/>
          </g>
        </g>
      </g>
      <g id="Grupo_257" data-name="Grupo 257" transform="translate(0)">
        <g id="Grupo_256" data-name="Grupo 256">
          <g id="Grupo_255" data-name="Grupo 255">
            <path id="Caminho_357" data-name="Caminho 357" d="M259.885,48.836a8.936,8.936,0,0,1-1,4.273,4.028,4.028,0,0,1-4.391,2l-2.262-.425a38.15,38.15,0,0,0-6.338-.472c-.688,0-1.348.019-2.019.055-.389.019-.751.036-1.123.064h-.091q-1.453.068-2.661.189h-.055a11.007,11.007,0,0,0-1.92.264c-.091.017-.172.027-.262.045h-.017a3.114,3.114,0,0,0-.381.127,1.007,1.007,0,0,0-.144.045,7.47,7.47,0,0,0-4.979,4.535c-.353,1.348-.751,2.815-1.187,4.363-.914,3.259-1.945,6.69-3.159,10.492-1.295,3.974-2.517,7.533-3.712,10.864-1.295,3.657-2.562,7.143-3.784,10.42-1.159,3.159-2.3,6.12-3.413,8.817-1.086,2.553-1.964,4.518-2.715,5.957a5.864,5.864,0,0,1-2.59,2.517c-.008.009-.017.009-.036.019a20.962,20.962,0,0,1-2.218.688,29.515,29.515,0,0,1-7.387.861,24.285,24.285,0,0,1-8.085-1.2A6.526,6.526,0,0,1,190,110.225c-.751-1.439-1.629-3.4-2.717-5.957-1.122-2.7-2.262-5.658-3.412-8.817-1.232-3.268-2.49-6.763-3.785-10.42-1.2-3.331-2.417-6.89-3.72-10.864-1.2-3.8-2.237-7.233-3.151-10.492-.434-1.539-.842-3.015-1.186-4.363a4.487,4.487,0,0,1,2.5-5.26,14.3,14.3,0,0,1,5.858-1.186,11.471,11.471,0,0,1,6.3,1.557c1.494.95,2.634,2.906,3.422,5.821l2.734,10.683,2.363,9.234c.353,1.475.7,2.906,1.031,4.154a4.662,4.662,0,0,0,.172.661c1.142,4.048,3.215,6.274,5.822,6.274,1.711,0,3.2-1,4.336-2.87a13.4,13.4,0,0,0,1.395-3.231l2.082-8.4c.144-.606.28-1.2.416-1.811,1.295-5.632,2.517-11.226,3.612-16.685.081-.372.154-.733.226-1.1a3.857,3.857,0,0,1,.226-.715,20.063,20.063,0,0,1,1.566-4.681,20.858,20.858,0,0,1,5.958-7.532,24.68,24.68,0,0,1,8.88-4.346,41.959,41.959,0,0,1,11.054-1.4c6.237,0,10.881.823,13.787,2.435C258.537,42.454,259.885,45.052,259.885,48.836Z" transform="translate(-171.875 -38.48)" fill="#ffa200"/>
            <path id="Caminho_358" data-name="Caminho 358" d="M205.634,69.87c-.136.606-.272,1.2-.416,1.811l-2.082,8.4a13.4,13.4,0,0,1-1.395,3.231,13.962,13.962,0,0,0,1.286-3.178,3.943,3.943,0,0,0,.181-.67c.326-1.239.679-2.679,1.033-4.146Z" transform="translate(-167.054 -33.413)" fill="#ffa200"/>
          </g>
        </g>
      </g>
    </g>
  </g>
</svg>
