<svg xmlns="http://www.w3.org/2000/svg" width="352.037" height="65" viewBox="0 0 352.037 65">
  <g id="Grupo_237" data-name="Grupo 237" transform="translate(-32.435 -43.093)">
    <g id="Grupo_229" data-name="Grupo 229" transform="translate(128.076 54.058)">
      <path id="Caminho_324" data-name="Caminho 324" d="M318.816,66.6a24.308,24.308,0,0,1,5.836.652,13.057,13.057,0,0,1,4.5,1.984,8.967,8.967,0,0,1,2.874,3.377,10.817,10.817,0,0,1,1.008,4.829V90.71a3.675,3.675,0,0,1-.859,2.517,8.6,8.6,0,0,1-2.044,1.689q-3.853,2.311-10.842,2.31a24.759,24.759,0,0,1-5.658-.593,13.405,13.405,0,0,1-4.325-1.777,8.144,8.144,0,0,1-2.783-3.021,8.938,8.938,0,0,1-.979-4.265,8.025,8.025,0,0,1,2.429-6.28Q310.4,79.1,315.5,78.566l7.119-1.142a.684.684,0,0,0,.57-.8,2.5,2.5,0,0,0-1.439-1.758,10.175,10.175,0,0,0-4.355-.74,20.286,20.286,0,0,0-4.354.474,25.567,25.567,0,0,0-2.561.695,2.161,2.161,0,0,1-2.613-1.118l-.01-.022a5.151,5.151,0,0,1-.533-2.281,3.8,3.8,0,0,1,.74-2.458,5.729,5.729,0,0,1,2.281-1.57,17.83,17.83,0,0,1,4.058-.948A35.215,35.215,0,0,1,318.816,66.6Zm.474,23.283a13.206,13.206,0,0,0,2.221-.207l.31-.054a1.807,1.807,0,0,0,1.5-1.781V84.8a.4.4,0,0,0-.43-.4l-3.835.32a6.574,6.574,0,0,0-2.725.711,1.914,1.914,0,0,0-1.066,1.777,2.356,2.356,0,0,0,.918,1.926A5.021,5.021,0,0,0,319.291,89.881Z" transform="translate(-130.095 -54.232)" fill="#ffa200"/>
      <path id="Caminho_325" data-name="Caminho 325" d="M158.048,70.941a13.281,13.281,0,0,1-.414,2.752q-.417,1.813-1.122,4.089c-.477,1.52-1.01,3.135-1.607,4.829s-1.2,3.349-1.829,4.947-1.265,3.1-1.9,4.5c-.454,1.018-.875,1.894-1.249,2.625a2.892,2.892,0,0,1-1.385,1.352,8.516,8.516,0,0,1-1.455.493,14.315,14.315,0,0,1-3.612.422,12.061,12.061,0,0,1-4-.6,3.933,3.933,0,0,1-2.339-1.894c-.357-.676-.779-1.6-1.273-2.783s-1.018-2.53-1.567-4.033-1.129-3.079-1.717-4.742-1.162-3.316-1.694-4.971-1.018-3.262-1.448-4.8q-.3-1.062-.549-2a3.041,3.041,0,0,1,1.7-3.54,7.431,7.431,0,0,1,3.054-.62,6.192,6.192,0,0,1,3.4.859,5.292,5.292,0,0,1,1.981,3.23l2.315,9.061q.238,1,.477,1.933s.016.079.056.214c.167.581.7,2.124,1.686,2.124.922,0,1.447-1.376,1.646-2.037l.032-.119c.041-.135.057-.214.057-.214l.843-3.436q1.05-4.5,1.933-8.87a3.059,3.059,0,0,1,2.2-2.347c.127-.04.263-.071.4-.1a10.8,10.8,0,0,1,2.458-.294,6.415,6.415,0,0,1,3.492.89A3.32,3.32,0,0,1,158.048,70.941Z" transform="translate(-128.788 -54.235)" fill="#787777"/>
      <path id="Caminho_326" data-name="Caminho 326" d="M170.141,85.714a1,1,0,0,0-.679,1.554,4.978,4.978,0,0,0,2.064,1.651,10.786,10.786,0,0,0,4.384.859,17.745,17.745,0,0,0,4.739-.621,18.461,18.461,0,0,0,2.234-.758,2.386,2.386,0,0,1,2.966.945l.013.021a4.246,4.246,0,0,1,.652,2.251,4.029,4.029,0,0,1-.829,2.547,6.294,6.294,0,0,1-2.341,1.778,13.281,13.281,0,0,1-3.584,1.036,29.591,29.591,0,0,1-4.562.326,20.784,20.784,0,0,1-6.487-.977,14.405,14.405,0,0,1-5.183-2.932,13.453,13.453,0,0,1-3.436-4.917,17.8,17.8,0,0,1-1.245-6.931,16.2,16.2,0,0,1,1.274-6.725A13.1,13.1,0,0,1,163.5,70.2a13.69,13.69,0,0,1,4.769-2.666,17.7,17.7,0,0,1,5.45-.86,16.473,16.473,0,0,1,5.717.949,13.75,13.75,0,0,1,4.443,2.606,11.283,11.283,0,0,1,2.874,3.97,12.468,12.468,0,0,1,1.007,5.035,4.043,4.043,0,0,1-1.126,3.081,5.632,5.632,0,0,1-3.14,1.363Zm3.636-11.695a5.408,5.408,0,0,0-3.762,1.363,5.27,5.27,0,0,0-1.44,2.217h0a1.051,1.051,0,0,0,1.164,1.381l.042-.007,7.388-1.216a1,1,0,0,0,.761-1.385l-.006-.013a4.168,4.168,0,0,0-.83-1.155,3.935,3.935,0,0,0-1.362-.859A5.361,5.361,0,0,0,173.777,74.019Z" transform="translate(-129.01 -54.233)" fill="#787777"/>
      <path id="Caminho_327" data-name="Caminho 327" d="M218.781,95.553a.911.911,0,0,1-.732.9c-.347.069-.766.148-1.135.2a18.307,18.307,0,0,1-2.636.178,7.223,7.223,0,0,1-4.265-.978q-1.3-.977-1.3-3.762V78.107a3.214,3.214,0,0,0-1.1-2.695,4.534,4.534,0,0,0-2.874-.86,8.048,8.048,0,0,0-2.221.3l-.021.006a2.781,2.781,0,0,0-1.964,2.69V94.506a2.159,2.159,0,0,1-1.841,2.141l-.025,0a18.307,18.307,0,0,1-2.636.178,7.226,7.226,0,0,1-4.265-.978q-1.3-.977-1.3-3.762V74.257a4.553,4.553,0,0,1,.682-2.607,7.177,7.177,0,0,1,1.865-1.836,16.488,16.488,0,0,1,5.065-2.281,25.041,25.041,0,0,1,6.783-.86q6.694,0,10.308,2.933a9.975,9.975,0,0,1,3.614,8.2Z" transform="translate(-129.244 -54.233)" fill="#787777"/>
      <path id="Caminho_328" data-name="Caminho 328" d="M236.827,66.6a13.14,13.14,0,0,1,4.384.652h0v-7.8a2.164,2.164,0,0,1,1.842-2.146l.024,0a18.155,18.155,0,0,1,2.636-.178,7.228,7.228,0,0,1,4.265.977q1.3.978,1.3,3.763V89.945a5.053,5.053,0,0,1-2.607,4.443,18.075,18.075,0,0,1-4.413,1.985,20.617,20.617,0,0,1-6.25.859q-7.762,0-12.086-3.821T221.6,82.006a17.945,17.945,0,0,1,1.185-6.812,12.861,12.861,0,0,1,8.057-7.642A18.466,18.466,0,0,1,236.827,66.6Zm4.444,9.888a1.863,1.863,0,0,0-1.407-1.827l-.016,0a7.107,7.107,0,0,0-1.6-.178,6.1,6.1,0,0,0-4.77,1.867q-1.688,1.866-1.688,5.657,0,3.733,1.6,5.51a5.817,5.817,0,0,0,4.561,1.778,7.539,7.539,0,0,0,1.955-.238h0a1.837,1.837,0,0,0,1.363-1.775Z" transform="translate(-129.474 -54.162)" fill="#787777"/>
      <path id="Caminho_329" data-name="Caminho 329" d="M267.263,66.673a24.307,24.307,0,0,1,5.836.652,13.065,13.065,0,0,1,4.5,1.984,8.966,8.966,0,0,1,2.874,3.377,10.82,10.82,0,0,1,1.008,4.829v13.27a3.679,3.679,0,0,1-.86,2.518,8.575,8.575,0,0,1-2.044,1.688q-3.852,2.311-10.841,2.31a24.751,24.751,0,0,1-5.658-.593,13.405,13.405,0,0,1-4.325-1.777,8.148,8.148,0,0,1-2.784-3.021,8.944,8.944,0,0,1-.978-4.265,8.027,8.027,0,0,1,2.429-6.28q2.428-2.192,7.525-2.725l7.119-1.141a.685.685,0,0,0,.57-.8,2.5,2.5,0,0,0-1.439-1.758,10.177,10.177,0,0,0-4.355-.739,20.279,20.279,0,0,0-4.354.473,25.584,25.584,0,0,0-2.562.695,2.161,2.161,0,0,1-2.613-1.118l-.01-.022a5.15,5.15,0,0,1-.533-2.28,3.8,3.8,0,0,1,.739-2.459,5.74,5.74,0,0,1,2.282-1.57,17.883,17.883,0,0,1,4.058-.948A35.219,35.219,0,0,1,267.263,66.673Zm.475,23.283a13.217,13.217,0,0,0,2.221-.207l.309-.054a1.807,1.807,0,0,0,1.5-1.781V84.878a.4.4,0,0,0-.43-.4l-3.835.32a6.569,6.569,0,0,0-2.725.711,1.913,1.913,0,0,0-1.066,1.777,2.351,2.351,0,0,0,.918,1.926A5.02,5.02,0,0,0,267.738,89.956Z" transform="translate(-129.714 -54.233)" fill="#787777"/>
      <path id="Caminho_330" data-name="Caminho 330" d="M302.1,69.734a2.09,2.09,0,0,1,1.957,1.337c.039.1.074.2.105.293a6.828,6.828,0,0,1,.327,2.162,4.118,4.118,0,0,1-.918,2.993,3.325,3.325,0,0,1-2.46.918h-6.035a.778.778,0,0,0-.777.777V94.436a2.156,2.156,0,0,1-1.841,2.132l-.025,0a18.308,18.308,0,0,1-2.636.178,7.225,7.225,0,0,1-4.265-.978q-1.3-.977-1.3-3.762V67.484a11.907,11.907,0,0,1,1.036-5.184,9.841,9.841,0,0,1,2.814-3.555,11.65,11.65,0,0,1,4.177-2.044,19.506,19.506,0,0,1,5.125-.652q4.383,0,6.457,1.155a4.138,4.138,0,0,1,2.074,3.941,4.49,4.49,0,0,1-.5,2.133h0a2.218,2.218,0,0,1-2.419,1.111q-.5-.1-1.017-.193a16.815,16.815,0,0,0-2.814-.207,7.691,7.691,0,0,0-3.969.859,3.21,3.21,0,0,0-1.421,2.992v1.006a.889.889,0,0,0,.889.889Z" transform="translate(-129.937 -54.154)" fill="#ffa200"/>
      <path id="Caminho_331" data-name="Caminho 331" d="M322.15,57.118a1.446,1.446,0,0,1,1.193-.462,3.859,3.859,0,0,1,2.177.788,2.409,2.409,0,0,1,.971,1.867,2.6,2.6,0,0,1-.374,1.437,6.339,6.339,0,0,1-1.269,1.326l-3.114,2.556a1.448,1.448,0,0,1-1.062.325A3.079,3.079,0,0,1,318.8,64.2a2.31,2.31,0,0,1-.821-1.68,2.243,2.243,0,0,1,.168-.859,3.448,3.448,0,0,1,.691-.971Z" transform="translate(-130.187 -54.159)" fill="#ffa200"/>
      <path id="Caminho_332" data-name="Caminho 332" d="M353.266,74.612a8.347,8.347,0,0,0-2.814.474,6.322,6.322,0,0,0-2.311,1.421,7.091,7.091,0,0,0-1.57,2.341,8.189,8.189,0,0,0-.592,3.228q0,3.675,2.074,5.45a7.639,7.639,0,0,0,5.154,1.778,10.117,10.117,0,0,0,3.141-.445q.372-.122.72-.245a2.773,2.773,0,0,1,3.327,1.086l.011.019a4.45,4.45,0,0,1,.563,2.31,4.29,4.29,0,0,1-2.341,3.792,12.912,12.912,0,0,1-6.664,1.422,21.6,21.6,0,0,1-6.724-.978,13.743,13.743,0,0,1-5.1-2.9,12.7,12.7,0,0,1-3.229-4.74,17.543,17.543,0,0,1-1.126-6.546,16.832,16.832,0,0,1,1.273-6.812,13.316,13.316,0,0,1,3.466-4.8,14.683,14.683,0,0,1,5.065-2.843,19.274,19.274,0,0,1,6.073-.949,11.816,11.816,0,0,1,6.575,1.541,4.681,4.681,0,0,1,2.29,3.515,4.916,4.916,0,0,1-.859,3.136l-.016.025a1.63,1.63,0,0,1-1.935.641q-.631-.241-1.376-.473A10.265,10.265,0,0,0,353.266,74.612Z" transform="translate(-130.318 -54.233)" fill="#ffa200"/>
      <path id="Caminho_333" data-name="Caminho 333" d="M362.784,59.472a5.207,5.207,0,0,1,1.51-3.792,5.961,5.961,0,0,1,8,0,5.514,5.514,0,0,1,0,7.584,5.964,5.964,0,0,1-8,0A5.208,5.208,0,0,1,362.784,59.472Zm.474,8.932a.7.7,0,0,1,.6-.69l1.269-.186a18.174,18.174,0,0,1,2.636-.178,7.232,7.232,0,0,1,4.266.977q1.3.978,1.3,3.762V95.848a.436.436,0,0,1-.345.429c-.379.079-1,.2-1.522.281a18.283,18.283,0,0,1-2.635.178,7.223,7.223,0,0,1-4.265-.978q-1.3-.977-1.3-3.762Z" transform="translate(-130.518 -54.14)" fill="#ffa200"/>
      <path id="Caminho_334" data-name="Caminho 334" d="M382.516,96.758a7.225,7.225,0,0,1-4.265-.978q-1.3-.977-1.3-3.762v-33.4a1.2,1.2,0,0,1,1.028-1.191l.837-.122a18.179,18.179,0,0,1,2.637-.178,7.231,7.231,0,0,1,4.265.977q1.3.978,1.3,3.763V95.347a1.074,1.074,0,0,1-.865,1.057c-.319.063-.679.128-1,.176A18.307,18.307,0,0,1,382.516,96.758Z" transform="translate(-130.622 -54.162)" fill="#ffa200"/>
    </g>
    <g id="Grupo_236" data-name="Grupo 236" transform="translate(32.435 43.093)">
      <g id="Grupo_232" data-name="Grupo 232" transform="translate(51.083 27.273)">
        <g id="Grupo_231" data-name="Grupo 231">
          <g id="Grupo_230" data-name="Grupo 230">
            <path id="Caminho_335" data-name="Caminho 335" d="M98.168,77.711a7.135,7.135,0,1,1-7.143-7.142A7.151,7.151,0,0,1,98.168,77.711Z" transform="translate(-83.898 -70.569)" fill="#ffa200"/>
          </g>
        </g>
      </g>
      <g id="Grupo_235" data-name="Grupo 235">
        <g id="Grupo_234" data-name="Grupo 234">
          <g id="Grupo_233" data-name="Grupo 233">
            <path id="Caminho_336" data-name="Caminho 336" d="M107.653,51.944a7.649,7.649,0,0,1-.859,3.652,3.444,3.444,0,0,1-3.753,1.71l-1.935-.363a32.592,32.592,0,0,0-5.416-.4c-.588,0-1.152.016-1.725.047-.333.016-.642.031-.96.055h-.077q-1.242.058-2.274.162h-.047a9.41,9.41,0,0,0-1.641.224c-.077.016-.147.024-.224.039h-.015a2.978,2.978,0,0,0-.326.108,1.22,1.22,0,0,0-.123.039,6.387,6.387,0,0,0-4.256,3.877c-.3,1.152-.642,2.406-1.013,3.729-.781,2.785-1.664,5.717-2.7,8.967-1.107,3.4-2.151,6.437-3.172,9.285-1.107,3.126-2.19,6.1-3.234,8.906-.991,2.7-1.965,5.23-2.917,7.536-.928,2.182-1.678,3.861-2.321,5.091a5.011,5.011,0,0,1-2.214,2.151c-.008.008-.015.008-.031.016a17.917,17.917,0,0,1-1.9.588,25.228,25.228,0,0,1-6.313.735,20.756,20.756,0,0,1-6.91-1.02,5.581,5.581,0,0,1-3.381-2.662c-.642-1.23-1.393-2.909-2.322-5.091-.959-2.306-1.935-4.836-2.917-7.536-1.052-2.793-2.127-5.78-3.234-8.906-1.021-2.848-2.066-5.888-3.179-9.285-1.029-3.25-1.912-6.182-2.693-8.967-.371-1.315-.72-2.577-1.013-3.729A3.835,3.835,0,0,1,34.7,56.4,12.216,12.216,0,0,1,39.7,55.387a9.8,9.8,0,0,1,5.386,1.331c1.276.812,2.251,2.484,2.924,4.975l2.337,9.13,2.02,7.891c.3,1.262.6,2.484.881,3.552a3.816,3.816,0,0,0,.147.565c.976,3.458,2.748,5.362,4.975,5.362A4.379,4.379,0,0,0,62.08,85.74a11.444,11.444,0,0,0,1.192-2.762l1.779-7.18c.124-.519.24-1.029.356-1.547,1.107-4.813,2.151-9.595,3.087-14.26.069-.318.132-.627.194-.936a3.3,3.3,0,0,1,.194-.611,17.131,17.131,0,0,1,1.338-4,17.835,17.835,0,0,1,5.091-6.437,21.105,21.105,0,0,1,7.59-3.714,35.86,35.86,0,0,1,9.448-1.2c5.33,0,9.3.7,11.783,2.081C106.5,46.49,107.653,48.71,107.653,51.944Z" transform="translate(-32.435 -43.093)" fill="#ffa200"/>
            <path id="Caminho_337" data-name="Caminho 337" d="M65.628,74.483c-.116.518-.232,1.028-.356,1.547l-1.779,7.18A11.444,11.444,0,0,1,62.3,85.972a11.931,11.931,0,0,0,1.1-2.716,3.372,3.372,0,0,0,.155-.573c.279-1.06.581-2.29.882-3.544Z" transform="translate(-32.655 -43.325)" fill="#ffa200"/>
          </g>
        </g>
      </g>
    </g>
  </g>
</svg>
