<svg xmlns="http://www.w3.org/2000/svg" width="300" height="138" viewBox="0 0 300 138" fill="none"><path d="M220.821 101.24C223.119 101.218 225.412 101.474 227.649 102.002C229.536 102.435 231.324 103.223 232.917 104.325C234.351 105.339 235.507 106.698 236.279 108.276C237.102 110.043 237.505 111.976 237.458 113.925V129.452C237.504 130.525 237.148 131.576 236.458 132.399C235.768 133.177 234.961 133.844 234.067 134.375C231.061 136.175 226.832 137.075 221.381 137.075C219.155 137.099 216.934 136.865 214.761 136.38C212.965 135.99 211.252 135.286 209.701 134.301C208.331 133.421 207.209 132.204 206.444 130.766C205.654 129.223 205.261 127.508 205.299 125.775C205.299 122.587 206.246 120.138 208.141 118.428C210.036 116.718 212.969 115.655 216.941 115.239L225.271 113.903C225.377 113.887 225.48 113.85 225.571 113.793C225.663 113.737 225.743 113.662 225.805 113.575C225.867 113.487 225.911 113.387 225.934 113.282C225.957 113.177 225.958 113.068 225.938 112.962C225.84 112.51 225.636 112.089 225.344 111.731C225.051 111.374 224.677 111.091 224.254 110.906C222.638 110.247 220.897 109.951 219.154 110.04C217.441 110.04 215.733 110.226 214.06 110.594C213.047 110.813 212.045 111.085 211.06 111.408C210.478 111.596 209.848 111.567 209.286 111.327C208.724 111.086 208.268 110.651 208.002 110.1L207.99 110.073C207.58 109.243 207.366 108.33 207.366 107.405C207.312 106.375 207.618 105.357 208.232 104.528C208.958 103.707 209.874 103.076 210.901 102.691C212.437 102.14 214.032 101.771 215.653 101.591C217.367 101.366 219.093 101.249 220.821 101.24V101.24ZM221.376 128.482C222.248 128.475 223.118 128.393 223.976 128.239L224.338 128.175C224.828 128.09 225.273 127.834 225.593 127.453C225.913 127.072 226.089 126.591 226.089 126.093V122.54C226.089 122.476 226.076 122.413 226.05 122.354C226.024 122.296 225.987 122.243 225.94 122.2C225.893 122.156 225.838 122.123 225.777 122.102C225.717 122.081 225.653 122.072 225.589 122.077L221.101 122.451C219.991 122.495 218.903 122.779 217.913 123.283C217.527 123.474 217.205 123.771 216.984 124.14C216.763 124.509 216.652 124.933 216.666 125.363C216.655 125.797 216.747 126.226 216.934 126.618C217.12 127.009 217.396 127.351 217.74 127.616C218.824 128.291 220.099 128.595 221.372 128.482H221.376Z" fill="white"></path><path d="M34.236 106.318C34.1879 107.406 34.0257 108.485 33.752 109.539C33.427 110.954 32.989 112.545 32.44 114.323C31.891 116.101 31.258 117.99 30.56 119.972C29.862 121.954 29.155 123.891 28.42 125.762C27.685 127.633 26.94 129.391 26.196 131.03C25.665 132.22 25.172 133.245 24.735 134.101C24.3924 134.799 23.8205 135.358 23.115 135.684C22.5666 135.926 21.9977 136.119 21.415 136.26C20.0332 136.604 18.613 136.77 17.189 136.754C15.6 136.787 14.017 136.55 12.507 136.054C11.3374 135.708 10.3532 134.911 9.771 133.839C9.353 133.048 8.85899 131.968 8.28199 130.581C7.70499 129.194 7.08999 127.622 6.44799 125.862C5.80599 124.102 5.127 122.262 4.439 120.315C3.751 118.368 3.07899 116.434 2.45599 114.497C1.83299 112.56 1.26399 110.681 0.760995 108.885C0.528995 108.057 0.314997 107.275 0.118997 106.539C-0.0921575 105.725 -0.00793189 104.862 0.356736 104.103C0.721404 103.345 1.34293 102.741 2.11099 102.397C3.23765 101.905 4.45574 101.658 5.68499 101.671C7.08225 101.615 8.46591 101.964 9.66899 102.677C10.8816 103.607 11.7072 104.953 11.987 106.455L14.695 117.055C14.881 117.836 15.0673 118.59 15.254 119.316C15.254 119.316 15.273 119.409 15.319 119.568C15.519 120.247 16.138 122.052 17.292 122.052C18.371 122.052 18.985 120.442 19.218 119.67L19.255 119.531C19.303 119.372 19.321 119.279 19.321 119.279L20.307 115.258C21.1257 111.749 21.8793 108.29 22.568 104.881C22.6998 104.229 23.0109 103.626 23.4663 103.141C23.9217 102.656 24.5034 102.308 25.146 102.135C25.295 102.089 25.454 102.051 25.612 102.014C26.5542 101.789 27.5192 101.673 28.488 101.669C29.9217 101.619 31.3396 101.981 32.574 102.712C33.1499 103.108 33.6084 103.652 33.9009 104.286C34.1934 104.921 34.3092 105.623 34.236 106.318V106.318Z" fill="white"></path><path d="M48.126 123.603C47.9295 123.632 47.7435 123.71 47.5857 123.831C47.4279 123.951 47.3033 124.11 47.2239 124.292C47.1444 124.474 47.1127 124.673 47.1316 124.871C47.1505 125.069 47.2195 125.258 47.332 125.422C47.9481 126.272 48.7825 126.94 49.747 127.355C51.3686 128.042 53.116 128.383 54.877 128.355C56.7496 128.364 58.6149 128.119 60.422 127.628C61.3112 127.388 62.1842 127.092 63.036 126.742C63.6503 126.48 64.3383 126.446 64.9751 126.648C65.6118 126.85 66.1551 127.274 66.506 127.842L66.521 127.866C67.0174 128.655 67.2818 129.568 67.284 130.5C67.31 131.575 66.9677 132.626 66.314 133.48C65.5786 134.38 64.6398 135.093 63.575 135.56C62.2409 136.16 60.829 136.568 59.381 136.774C57.6141 137.038 55.8295 137.165 54.043 137.155C51.4683 137.178 48.9063 136.792 46.453 136.011C44.2142 135.303 42.1483 134.134 40.388 132.58C38.6314 130.989 37.2568 129.022 36.367 126.826C35.3462 124.247 34.8512 121.489 34.911 118.716C34.8421 116.017 35.3505 113.335 36.402 110.849C37.3046 108.777 38.6537 106.931 40.353 105.441C41.9844 104.037 43.8818 102.976 45.932 102.321C47.9923 101.656 50.1441 101.319 52.309 101.321C54.587 101.292 56.852 101.668 58.999 102.43C60.9092 103.11 62.6736 104.144 64.199 105.48C65.6468 106.763 66.7946 108.349 67.561 110.125C68.3581 111.986 68.7593 113.993 68.739 116.017C68.783 116.676 68.6886 117.336 68.4618 117.956C68.2349 118.577 67.8807 119.142 67.422 119.617C66.3927 120.517 65.1086 121.075 63.748 121.212L48.126 123.603ZM52.38 109.92C50.7636 109.869 49.1892 110.439 47.98 111.513C47.2069 112.221 46.627 113.114 46.295 114.108V114.108C46.2254 114.309 46.2092 114.525 46.2481 114.735C46.2871 114.944 46.3797 115.14 46.5169 115.303C46.6542 115.466 46.8314 115.591 47.0313 115.665C47.2311 115.739 47.4467 115.759 47.657 115.725L47.706 115.717L56.35 114.293C56.5265 114.266 56.6944 114.198 56.8407 114.096C56.987 113.993 57.1079 113.859 57.1939 113.702C57.28 113.546 57.329 113.371 57.3372 113.193C57.3453 113.015 57.3124 112.837 57.241 112.673L57.234 112.659C56.9899 112.156 56.6615 111.698 56.263 111.306C55.8065 110.867 55.2642 110.526 54.67 110.306C53.9371 110.037 53.1605 109.907 52.38 109.923V109.92Z" fill="white"></path><path d="M104.764 135.118C104.765 135.365 104.68 135.604 104.524 135.795C104.368 135.987 104.15 136.118 103.908 136.166C103.502 136.247 103.008 136.339 102.581 136.402C101.559 136.546 100.528 136.616 99.496 136.61C97.1847 136.61 95.521 136.229 94.505 135.467C93.489 134.705 92.9807 133.238 92.98 131.067V114.703C93.0292 114.114 92.9387 113.521 92.716 112.973C92.4932 112.425 92.1445 111.937 91.698 111.549C90.7239 110.842 89.5383 110.487 88.336 110.543C87.4574 110.537 86.5823 110.654 85.736 110.89L85.712 110.897C85.0403 111.103 84.4534 111.521 84.0389 112.088C83.6243 112.655 83.4044 113.341 83.412 114.044V133.889C83.4136 134.496 83.1969 135.083 82.8014 135.543C82.4059 136.003 81.8581 136.305 81.258 136.395H81.229C80.2071 136.539 79.176 136.609 78.144 136.603C75.8327 136.603 74.169 136.222 73.153 135.46C72.137 134.698 71.6287 133.231 71.628 131.06V110.203C71.5808 109.129 71.8597 108.066 72.428 107.154C73.0174 106.31 73.757 105.581 74.61 105.004C76.4208 103.786 78.4248 102.884 80.537 102.335C83.1245 101.64 85.7951 101.304 88.474 101.335C93.696 101.335 97.7163 102.479 100.535 104.766C103.354 107.053 104.763 110.253 104.764 114.366V135.118Z" fill="white"></path><path d="M125.61 101.328C127.351 101.29 129.085 101.548 130.74 102.09V92.962C130.738 92.3543 130.955 91.7662 131.351 91.3051C131.747 90.8439 132.295 90.5405 132.896 90.45H132.924C133.946 90.3055 134.977 90.2356 136.009 90.241C138.319 90.241 139.983 90.6223 141 91.385C142.017 92.1477 142.526 93.6143 142.525 95.785V128.642C142.53 129.703 142.249 130.745 141.712 131.66C141.176 132.575 140.403 133.328 139.475 133.842C137.865 134.843 136.128 135.624 134.311 136.164C131.939 136.873 129.473 137.212 126.998 137.17C120.943 137.17 116.23 135.68 112.857 132.699C109.484 129.718 107.798 125.27 107.797 119.355C107.738 116.633 108.209 113.925 109.184 111.383C109.987 109.283 111.251 107.39 112.883 105.842C114.514 104.295 116.471 103.132 118.611 102.441C120.867 101.687 123.232 101.311 125.61 101.328V101.328ZM130.81 112.897C130.815 112.408 130.656 111.931 130.357 111.543C130.059 111.155 129.638 110.879 129.164 110.759H129.145C128.531 110.619 127.904 110.549 127.274 110.55C126.241 110.488 125.207 110.651 124.243 111.028C123.279 111.406 122.409 111.988 121.693 112.735C120.376 114.19 119.717 116.397 119.717 119.355C119.717 122.266 120.341 124.415 121.589 125.802C122.274 126.515 123.107 127.071 124.028 127.43C124.95 127.789 125.939 127.943 126.926 127.881C127.697 127.888 128.467 127.795 129.214 127.603C129.672 127.481 130.076 127.211 130.364 126.835C130.653 126.459 130.809 125.999 130.809 125.525L130.81 112.897Z" fill="white"></path><path d="M160.942 101.327C163.24 101.305 165.533 101.561 167.77 102.089C169.657 102.522 171.445 103.311 173.038 104.412C174.472 105.426 175.628 106.785 176.4 108.363C177.223 110.13 177.626 112.063 177.579 114.012V129.539C177.624 130.613 177.265 131.664 176.573 132.486C175.883 133.265 175.077 133.931 174.182 134.462C171.177 136.262 166.949 137.162 161.497 137.162C159.271 137.186 157.05 136.953 154.877 136.469C153.081 136.078 151.369 135.374 149.817 134.389C148.447 133.509 147.325 132.292 146.559 130.854C145.77 129.311 145.377 127.596 145.415 125.863C145.415 122.675 146.362 120.226 148.257 118.516C150.152 116.806 153.085 115.743 157.057 115.327L165.387 113.991C165.493 113.975 165.596 113.938 165.687 113.881C165.779 113.825 165.859 113.75 165.921 113.663C165.983 113.575 166.027 113.475 166.05 113.37C166.073 113.265 166.074 113.156 166.054 113.05C165.956 112.599 165.752 112.177 165.459 111.819C165.167 111.462 164.793 111.179 164.37 110.994C162.754 110.335 161.013 110.039 159.27 110.128C157.557 110.128 155.849 110.314 154.176 110.682C153.163 110.901 152.161 111.173 151.176 111.496C150.594 111.684 149.964 111.656 149.402 111.415C148.84 111.175 148.384 110.739 148.119 110.188L148.107 110.162C147.697 109.332 147.483 108.419 147.483 107.493C147.429 106.463 147.735 105.446 148.348 104.616C149.075 103.795 149.992 103.165 151.018 102.779C152.552 102.225 154.145 101.854 155.766 101.671C157.482 101.448 159.211 101.333 160.942 101.327V101.327ZM161.497 128.569C162.369 128.561 163.239 128.48 164.097 128.326L164.458 128.263C164.949 128.178 165.394 127.922 165.715 127.541C166.035 127.159 166.211 126.677 166.211 126.179V122.626C166.211 122.562 166.198 122.499 166.172 122.44C166.146 122.382 166.109 122.329 166.062 122.286C166.015 122.242 165.96 122.209 165.899 122.188C165.839 122.167 165.775 122.159 165.711 122.164L161.223 122.537C160.113 122.581 159.025 122.865 158.035 123.369C157.649 123.56 157.327 123.857 157.106 124.226C156.885 124.595 156.774 125.019 156.788 125.449C156.777 125.883 156.868 126.313 157.055 126.704C157.242 127.096 157.518 127.438 157.862 127.702C158.948 128.379 160.225 128.684 161.499 128.569H161.497Z" fill="white"></path><path d="M201.445 105C201.94 104.998 202.424 105.147 202.833 105.426C203.242 105.705 203.556 106.101 203.735 106.563C203.78 106.683 203.822 106.799 203.858 106.907C204.12 107.724 204.249 108.579 204.24 109.437C204.357 110.7 203.971 111.957 203.166 112.937C202.784 113.302 202.332 113.585 201.837 113.77C201.343 113.955 200.815 114.037 200.288 114.011H193.227C192.986 114.011 192.755 114.107 192.585 114.278C192.414 114.448 192.318 114.679 192.318 114.92V133.901C192.318 134.506 192.101 135.091 191.705 135.55C191.31 136.008 190.763 136.308 190.164 136.396H190.135C189.113 136.54 188.082 136.61 187.05 136.604C184.739 136.604 183.075 136.223 182.059 135.461C181.043 134.699 180.535 133.232 180.534 131.061V102.361C180.479 100.274 180.893 98.2012 181.747 96.296C182.506 94.6722 183.634 93.2479 185.04 92.136C186.492 91.0192 188.154 90.206 189.927 89.745C191.884 89.226 193.902 88.9697 195.927 88.983C199.346 88.983 201.865 89.4337 203.482 90.335C204.284 90.792 204.938 91.4689 205.368 92.2857C205.798 93.1025 205.985 94.0252 205.908 94.945C205.922 95.8143 205.719 96.6733 205.319 97.445V97.445C205.052 97.9389 204.631 98.3327 204.121 98.5672C203.611 98.8016 203.038 98.864 202.489 98.745C202.099 98.6637 201.702 98.5887 201.299 98.52C200.21 98.3475 199.109 98.2662 198.006 98.277C196.395 98.1901 194.791 98.5375 193.361 99.283C192.792 99.6599 192.336 100.185 192.043 100.802C191.75 101.419 191.631 102.104 191.698 102.783V103.961C191.698 104.098 191.725 104.233 191.777 104.36C191.829 104.486 191.906 104.601 192.003 104.697C192.099 104.794 192.214 104.871 192.34 104.923C192.467 104.975 192.602 105.002 192.739 105.002L201.445 105Z" fill="white"></path><path d="M224.61 90.232C224.786 90.0409 225.004 89.8928 225.247 89.7992C225.49 89.7056 225.751 89.6689 226.01 89.692C226.934 89.7312 227.823 90.0534 228.557 90.615C228.899 90.8692 229.179 91.1978 229.376 91.5759C229.573 91.954 229.681 92.3719 229.693 92.798C229.714 93.3894 229.562 93.974 229.255 94.48C228.838 95.0666 228.338 95.5894 227.771 96.032L224.128 99.023C223.781 99.3097 223.333 99.4467 222.885 99.404C222.076 99.3637 221.304 99.0531 220.693 98.522C220.405 98.2792 220.171 97.9789 220.005 97.6404C219.84 97.3018 219.747 96.9325 219.733 96.556C219.734 96.2128 219.802 95.8731 219.933 95.556C220.134 95.1333 220.408 94.7489 220.741 94.42L224.61 90.232Z" fill="white"></path><path d="M260.864 110.616C259.743 110.61 258.629 110.798 257.571 111.17C256.562 111.524 255.641 112.091 254.871 112.833C254.081 113.614 253.457 114.545 253.035 115.572C252.551 116.772 252.315 118.057 252.342 119.35C252.342 122.217 253.151 124.342 254.768 125.726C256.453 127.138 258.6 127.878 260.798 127.806C262.043 127.827 263.283 127.651 264.473 127.286C264.763 127.192 265.044 127.096 265.315 126.999C266.011 126.732 266.778 126.712 267.487 126.944C268.196 127.175 268.804 127.643 269.208 128.27L269.221 128.292C269.681 129.116 269.909 130.049 269.88 130.992C269.874 131.912 269.615 132.812 269.132 133.594C268.649 134.377 267.96 135.011 267.141 135.429C265.315 136.539 262.715 137.094 259.341 137.093C256.675 137.13 254.019 136.744 251.474 135.949C249.265 135.258 247.232 134.098 245.512 132.549C243.846 131.013 242.554 129.116 241.734 127.004C240.811 124.558 240.364 121.958 240.417 119.344C240.355 116.612 240.863 113.897 241.907 111.372C242.821 109.22 244.207 107.301 245.963 105.757C247.697 104.265 249.713 103.134 251.89 102.431C254.184 101.684 256.583 101.309 258.996 101.322C262.323 101.322 264.888 101.922 266.689 103.122C267.425 103.552 268.05 104.148 268.515 104.862C268.98 105.576 269.272 106.388 269.368 107.235C269.46 108.536 269.108 109.83 268.368 110.905L268.349 110.934C268.113 111.297 267.76 111.57 267.348 111.706C266.937 111.842 266.491 111.834 266.085 111.684C265.592 111.496 265.056 111.311 264.475 111.129C263.304 110.775 262.087 110.602 260.864 110.616V110.616Z" fill="white"></path><path d="M271.767 93.009C271.747 92.1886 271.894 91.3728 272.197 90.6103C272.501 89.8479 272.955 89.1546 273.533 88.572C274.815 87.4118 276.483 86.7693 278.212 86.7693C279.942 86.7693 281.61 87.4118 282.892 88.572C284.027 89.7702 284.66 91.358 284.66 93.0085C284.66 94.659 284.027 96.2468 282.892 97.445C281.609 98.6044 279.942 99.2463 278.212 99.2463C276.483 99.2463 274.816 98.6044 273.533 97.445C272.955 96.8626 272.501 96.1694 272.197 95.4072C271.894 94.6449 271.748 93.8292 271.767 93.009V93.009ZM272.321 103.462C272.321 103.266 272.392 103.076 272.52 102.927C272.649 102.779 272.827 102.682 273.021 102.654L274.505 102.437C275.527 102.293 276.558 102.223 277.59 102.229C279.901 102.229 281.565 102.61 282.582 103.372C283.599 104.134 284.107 105.601 284.107 107.772V135.572C284.107 135.689 284.068 135.802 283.995 135.893C283.922 135.984 283.821 136.047 283.707 136.072C283.263 136.165 282.535 136.312 281.927 136.401C280.905 136.545 279.875 136.615 278.843 136.609C276.532 136.609 274.868 136.228 273.852 135.466C272.836 134.704 272.327 133.237 272.326 131.066L272.321 103.462Z" fill="white"></path><path d="M294.732 136.61C292.421 136.61 290.757 136.229 289.741 135.467C288.725 134.705 288.217 133.237 288.216 131.062V91.98C288.216 91.6425 288.337 91.3161 288.557 91.0604C288.777 90.8047 289.082 90.6367 289.416 90.587L290.395 90.444C291.417 90.2995 292.449 90.2297 293.481 90.235C295.791 90.235 297.455 90.6163 298.472 91.379C299.489 92.1417 299.998 93.6083 299.997 95.779V134.962C299.998 135.254 299.897 135.537 299.712 135.762C299.528 135.988 299.27 136.142 298.984 136.199C298.611 136.271 298.19 136.349 297.813 136.399C296.792 136.544 295.763 136.614 294.732 136.61V136.61Z" fill="white"></path><path d="M182.462 40.269C182.46 41.9192 181.969 43.5319 181.051 44.9031C180.133 46.2744 178.829 47.3429 177.304 47.9735C175.779 48.6041 174.101 48.7685 172.483 48.4461C170.865 48.1237 169.378 47.3288 168.211 46.1619C167.044 44.995 166.249 43.5085 165.927 41.8901C165.604 40.2716 165.769 38.594 166.4 37.069C167.03 35.544 168.099 34.2401 169.47 33.3221C170.841 32.404 172.454 31.913 174.104 31.911C176.32 31.9134 178.444 32.7947 180.011 34.3616C181.578 35.9286 182.46 38.0531 182.462 40.269V40.269Z" fill="white"></path><path d="M194.005 10.356C194.032 11.8413 193.688 13.3099 193.005 14.629C192.587 15.3917 191.934 15.9987 191.142 16.3592C190.351 16.7197 189.464 16.8144 188.614 16.629L186.352 16.204C184.256 15.8707 182.136 15.7128 180.014 15.732C179.326 15.732 178.666 15.751 177.995 15.787C177.606 15.806 177.244 15.823 176.872 15.851H176.781C175.812 15.8963 174.925 15.9593 174.12 16.04H174.065C173.418 16.0714 172.776 16.1597 172.145 16.304C172.054 16.321 171.973 16.331 171.883 16.349H171.866C171.736 16.3831 171.609 16.4255 171.485 16.476C171.436 16.4874 171.388 16.5024 171.341 16.521C170.214 16.8343 169.176 17.4079 168.311 18.1956C167.447 18.9833 166.779 19.963 166.362 21.056C166.009 22.404 165.611 23.871 165.175 25.419C164.261 28.678 163.23 32.109 162.016 35.911C160.721 39.885 159.499 43.444 158.304 46.775C157.009 50.432 155.742 53.918 154.52 57.195C153.361 60.354 152.22 63.315 151.107 66.012C150.021 68.565 149.143 70.53 148.392 71.969C147.815 73.0596 146.909 73.9404 145.802 74.486C145.794 74.495 145.785 74.495 145.766 74.505C145.04 74.7752 144.299 75.0048 143.548 75.193C141.132 75.7903 138.65 76.0796 136.161 76.054C133.418 76.1137 130.684 75.7079 128.076 74.854C127.244 74.6234 126.465 74.2298 125.786 73.6961C125.107 73.1624 124.541 72.4992 124.12 71.745C123.369 70.306 122.491 68.345 121.403 65.788C120.281 63.088 119.141 60.13 117.991 56.971C116.759 53.703 115.501 50.208 114.206 46.551C113.006 43.22 111.789 39.661 110.486 35.687C109.286 31.887 108.249 28.454 107.335 25.195C106.901 23.656 106.493 22.18 106.149 20.832C105.872 19.8012 105.971 18.7054 106.43 17.7413C106.888 16.7772 107.675 16.0081 108.649 15.572C110.496 14.7685 112.493 14.3643 114.507 14.386C116.713 14.2878 118.901 14.8284 120.807 15.943C122.301 16.893 123.441 18.849 124.229 21.764L126.963 32.447L129.326 41.681C129.679 43.156 130.026 44.587 130.357 45.835C130.398 46.0593 130.456 46.2802 130.529 46.496C131.671 50.544 133.744 52.77 136.351 52.77C138.062 52.77 139.551 51.77 140.687 49.9C141.292 48.889 141.761 47.8027 142.082 46.669L144.164 38.269C144.308 37.663 144.444 37.069 144.58 36.458C145.875 30.826 147.097 25.232 148.192 19.773C148.273 19.401 148.346 19.04 148.418 18.673C148.47 18.4279 148.546 18.1884 148.644 17.958C148.971 16.3392 149.497 14.7669 150.21 13.277C151.583 10.3371 153.623 7.75807 156.168 5.74501C158.805 3.71223 161.825 2.23391 165.048 1.39901C168.654 0.443008 172.371 -0.0278104 176.102 -0.000990902C182.339 -0.000990902 186.983 0.822011 189.889 2.43401C192.657 3.97401 194.005 6.57201 194.005 10.356Z" fill="white"></path><path d="M144.575 36.457C144.439 37.063 144.303 37.657 144.159 38.268L142.077 46.668C141.756 47.8017 141.287 48.888 140.682 49.899C141.24 48.8965 141.672 47.8292 141.968 46.721C142.048 46.5034 142.108 46.2792 142.149 46.051C142.475 44.812 142.828 43.372 143.182 41.905L144.575 36.457Z" fill="white"></path></svg>