<svg xmlns="http://www.w3.org/2000/svg" width="45.777" height="50" viewBox="0 0 45.777 50"><g id="Grupo_241" data-name="Grupo 241" transform="translate(-974.559 -188.015)"><path id="Caminho_339" data-name="Caminho 339" d="M999.111,213a12.494,12.494,0,1,1,12.493-12.494A12.508,12.508,0,0,1,999.111,213Z" transform="translate(-1.663 0)" fill="#ffa200"></path><path id="Caminho_340" data-name="Caminho 340" d="M1018.81,242.564H976.085a1.526,1.526,0,0,1-1.526-1.526,20.015,20.015,0,0,1,5.8-14.121A19.578,19.578,0,0,1,994.4,221h6.1a19.577,19.577,0,0,1,14.034,5.92,20.015,20.015,0,0,1,5.8,14.121A1.526,1.526,0,0,1,1018.81,242.564Z" transform="translate(0 -4.549)" fill="#ffa200"></path></g></svg>